<?xml version="1.0" encoding="UTF-8"?>
<svg xmlns="http://www.w3.org/2000/svg" viewBox="0 0 180 180">
  <path d="M73.55,145.57c-16.78-7.21-24.96-23.76-24.18-41.48.94-21.29,12.94-59.89,34.11-67.95,5.31-2.02,12.78-1.55,17.48,1.51,19.56,12.71,29.11,44.56,30.58,66.39.99,14.72-5.2,28.68-16.14,36.76-12.04,8.89-27.55,10.92-41.85,4.77ZM115.95,108.42c0-14.07-11.41-25.48-25.49-25.48s-25.49,11.41-25.49,25.48,11.41,25.48,25.49,25.48,25.49-11.41,25.49-25.48Z"/>
  <path d="M85.96,93.59c-10.43,3.53-9.26,12.8-12.35,10.42-.67-.52-1.62-2.45-1.35-3.37,2.52-8.69,14.87-14.05,15.67-10,.16.82-1.14,2.67-1.98,2.95h.01Z"/>
</svg>